<?xml version="1.0" encoding="UTF-8" standalone="no"?>
<!DOCTYPE svg PUBLIC "-//W3C//DTD SVG 1.1//EN" "http://www.w3.org/Graphics/SVG/1.1/DTD/svg11.dtd">
<svg width="144px" height="58px" viewBox="0 0 715 293" version="1.1" xmlns="http://www.w3.org/2000/svg" xmlns:xlink="http://www.w3.org/1999/xlink" xml:space="preserve" xmlns:serif="http://www.serif.com/" style="fill-rule:evenodd;clip-rule:evenodd;stroke-miterlimit:10;">
    <g transform="matrix(1,0,0,1,-184,-151)">
        <g id="XMLID_18_">
            <path id="XMLID_761_" d="M887.74,233.71C884.36,230.75 865.47,212.39 862.09,209.43C849.82,198.68 837.55,187.93 825.29,177.18C824.89,176.83 824.48,176.47 824.08,176.12C823.88,175.95 823.69,175.78 823.49,175.6C824.15,174.65 824.48,173.98 824.32,173.8C824.35,173.67 824.34,173.57 824.29,173.52C823.54,172.64 822.79,171.77 822.04,170.89C820.84,169.49 819.64,168.1 818.45,166.7C818.3,166.52 818.15,166.35 817.99,166.17C819.29,165.14 820.52,164.27 821.65,163.55C826.38,160.55 829.65,159.97 831.08,159.98C831.55,159.98 831.96,159.86 832.34,159.66C832.9,159.37 833.37,158.66 833.87,158.25C833.73,158.19 833.6,158.14 833.46,158.08L833.47,158.07C833.1,157.9 832.72,157.77 832.33,157.66C831.54,157.43 830.73,157.32 829.91,157.3C830.45,156.99 830.9,156.32 831.39,155.93C831.25,155.87 831.12,155.82 830.98,155.76L830.99,155.75C830.62,155.58 830.24,155.45 829.85,155.34C829.39,155.21 828.92,155.11 828.44,155.05C828.03,155 827.62,154.97 827.2,154.96C826.94,154.96 826.68,154.96 826.42,154.97C825.61,155.01 824.79,155.13 823.98,155.3C822.56,155.61 821.16,156.09 819.86,156.65C817.45,157.68 815.36,158.98 814.03,159.88C813.69,160.11 813.4,160.32 813.16,160.49C813.09,160.54 813.04,160.58 812.98,160.62C812.95,160.64 812.92,160.67 812.89,160.69C812.73,160.81 812.6,160.91 812.54,160.95C812.51,160.97 812.5,160.98 812.5,160.98C812.5,160.98 812.5,160.99 812.51,160.99C811.99,161.39 811.47,161.8 810.98,162.22C809.35,163.58 807.83,165 806.42,166.5C805.08,167.92 803.85,169.41 802.73,170.99C802.25,171.67 801.78,172.36 801.35,173.07L801.34,173.06C801.36,173.93 801.08,174.65 800.62,175.25C800.16,175.85 799.51,176.32 798.8,176.67C798.07,177.03 797.27,177.27 796.53,177.4C795.88,177.52 795.27,177.55 794.81,177.5C794.49,177.84 794.17,178.18 793.86,178.52C793.3,179.12 792.73,179.72 792.17,180.33C791.45,181.1 790.73,181.87 790,182.65C789.76,182.91 789.51,183.17 789.27,183.43C789.18,183.53 789.33,183.85 789.69,184.34C790.16,184.97 790.96,185.88 791.98,186.92C792.57,187.54 793.25,188.22 794,188.92C795.56,190.39 797.19,191.95 799.03,193.08C799.47,193.35 799.76,193.46 799.84,193.37C800.08,193.11 800.33,192.85 800.57,192.59C801.29,191.82 802.02,191.04 802.74,190.27C803.3,189.67 803.87,189.07 804.43,188.46C804.75,188.12 805.07,187.78 805.38,187.44C805.37,187.36 805.36,187.27 805.36,187.17C805.35,187.13 805.35,187.07 805.35,187.03C805.34,186.62 805.39,186.14 805.49,185.6C805.65,184.78 805.96,183.87 806.39,183.01C806.81,182.18 807.34,181.41 808,180.84C808.65,180.27 809.41,179.89 810.28,179.85L810.27,179.84C810.99,180.38 811.71,180.91 812.43,181.45C813.35,182.14 814.28,182.83 815.2,183.52C815.4,183.7 816.17,183.24 817.23,182.35L818.89,184.01C819.27,184.39 852.8,217.83 853.54,218.56C854.28,219.3 877.36,242.25 878.59,243.48C879.82,244.71 880.69,245.57 881.74,246.62C881.9,246.77 882.58,246.31 883.57,245.46C884.67,244.51 885.72,243.5 886.73,242.44C887.83,241.28 888.86,240.07 889.83,238.82C890.76,237.62 891.27,236.77 891.1,236.61C889.97,235.66 888.86,234.69 887.74,233.71Z" style="fill-rule:nonzero;"/>
        </g>
        <g>
            <g id="XMLID_682_">
                <g id="XMLID_670_">
                    <path id="XMLID_769_" d="M818.67,246.41C817.07,248.07 814.43,248.11 812.77,246.52L803.03,237.13C802.01,236.15 801.6,234.78 801.81,233.48C801.94,232.66 802.31,231.88 802.93,231.24C804.53,229.58 807.17,229.53 808.83,231.13L818.57,240.52C820.22,242.12 820.27,244.76 818.67,246.41ZM884.22,167.15C883.88,166.86 883.49,166.68 883.08,166.58C882.08,166.09 880.84,166.25 880.01,167.08L812.54,219.49C811.65,220.2 813.72,222.22 812.83,222.93C811.27,224.18 806.75,224.13 805.19,225.38C804.87,225.64 804.55,225.9 804.22,226.15C803.9,226.41 803.58,226.67 803.26,226.92C802.09,227.85 800.93,228.78 799.77,229.72C799.18,230.19 798.59,230.67 798,231.14C797.9,231.22 797.79,231.31 797.69,231.39C797.18,231.79 796.68,232.19 796.18,232.6C794.99,233.56 793.79,234.51 792.6,235.47C792.17,235.81 791.78,236.17 791.48,236.56C790.97,237.22 790.68,237.98 790.8,238.95C790.81,239.06 790.83,239.17 790.86,239.28C790.93,239.6 791.05,239.91 791.21,240.2C791.42,240.57 791.7,240.89 792.04,241.16C792.49,241.51 793.01,241.67 793.53,241.89C794.77,242.39 795.94,243.04 797,243.84C797.59,244.28 798.15,244.77 798.67,245.29C798.85,245.46 799.02,245.64 799.18,245.83C799.95,246.68 800.72,247.52 801.48,248.37C801.96,248.9 802.45,249.44 802.93,249.98C803.58,250.69 804.23,251.41 804.87,252.12C805.62,252.94 806.36,253.76 807.11,254.58C807.26,254.72 807.41,254.86 807.57,254.99C807.88,255.25 808.21,255.48 808.55,255.68C808.89,255.89 809.24,256.06 809.6,256.21C809.95,256.36 810.32,256.49 810.69,256.58C810.88,256.63 811.06,256.67 811.25,256.7C812.25,256.89 813.28,256.89 814.28,256.71C814.88,256.6 815.47,256.42 816.04,256.18C816.78,255.87 817.4,255.45 817.98,254.97C818.09,254.87 818.21,254.77 818.33,254.67C818.65,254.37 818.96,254.05 819.26,253.72C819.56,253.39 819.86,253.05 820.16,252.7C821.32,251.35 822.48,250 823.63,248.66C823.95,248.29 824.27,247.92 824.59,247.54C824.91,247.17 825.23,246.79 825.55,246.42C827.11,244.61 828.66,242.8 830.22,240.99C830.77,240.35 831.32,239.71 831.87,239.07L833.34,240.33L833.61,240.01L833.81,240.18L835.19,238.58L834.55,237.22C834.48,237.07 834.51,236.91 834.6,236.8L836.02,237.22L836.71,236.82L837.06,236.42L836.42,235.06C836.35,234.91 836.38,234.75 836.47,234.63L837.89,235.05L838.08,234.82L838.36,234.9L838.93,234.24L838.29,232.88C838.22,232.72 838.25,232.57 838.34,232.45L839.76,232.87L839.95,232.64L840.23,232.72L840.8,232.06L840.16,230.7C840.09,230.54 840.12,230.39 840.21,230.27L841.63,230.69L841.82,230.47L842.1,230.55L842.67,229.89L842.03,228.53C841.96,228.38 841.99,228.22 842.08,228.11L843.5,228.53L843.69,228.31L843.97,228.39L844.54,227.73L843.9,226.37C843.82,226.22 843.86,226.06 843.95,225.94L845.37,226.36L845.56,226.13L845.84,226.21L846.41,225.55L845.77,224.19C845.7,224.03 845.73,223.88 845.82,223.76L847.24,224.18L847.43,223.95L847.71,224.03L848.28,223.37L847.64,222.01C847.57,221.85 847.6,221.7 847.69,221.58L849.11,222L849.3,221.78L849.58,221.86L850.15,221.2L849.51,219.84C849.44,219.69 849.47,219.53 849.56,219.41L850.98,219.83L851.17,219.6L851.45,219.68L852.02,219.02L851.38,217.66C851.31,217.51 851.34,217.35 851.43,217.23L852.85,217.65L853.04,217.42L853.32,217.5L853.89,216.84L853.25,215.48C853.17,215.32 853.21,215.17 853.3,215.05L854.72,215.47L854.91,215.25L855.19,215.33L855.76,214.67L855.12,213.31C855.05,213.16 855.08,213 855.17,212.89L856.59,213.31L856.78,213.09L857.06,213.17L857.63,212.51L856.99,211.15C856.92,211 856.95,210.84 857.04,210.72L858.46,211.14L858.65,210.91L858.93,210.99L859.5,210.33L858.86,208.97C858.79,208.81 858.82,208.66 858.91,208.54L860.33,208.96L860.52,208.73L860.8,208.81L861.37,208.15L860.73,206.79C860.66,206.63 860.69,206.48 860.78,206.36L862.2,206.78L862.39,206.56L862.67,206.64L863.24,205.98L862.6,204.62C862.52,204.47 862.56,204.31 862.65,204.19L864.07,204.61L864.26,204.39L864.54,204.47L865.11,203.81L864.47,202.45C864.4,202.3 864.43,202.14 864.52,202.02L865.94,202.44L866.13,202.21L866.41,202.29L866.98,201.63L866.34,200.27C866.27,200.11 866.3,199.96 866.39,199.84L867.81,200.26L868,200.04L868.28,200.12L868.85,199.46L868.21,198.1C868.14,197.95 868.17,197.79 868.26,197.68L869.68,198.1L869.87,197.88L870.15,197.96L870.72,197.3L870.08,195.94C870.01,195.79 870.04,195.63 870.13,195.51L871.55,195.93L871.74,195.7L872.02,195.78L872.59,195.12L871.96,193.76C871.88,193.6 871.92,193.45 872,193.33L873.42,193.75L873.61,193.52L873.89,193.6L874.46,192.94L873.82,191.58C873.75,191.42 873.78,191.27 873.87,191.15L875.29,191.57L875.48,191.35L875.76,191.43L876.33,190.77L875.69,189.41C875.62,189.26 875.65,189.1 875.74,188.99L877.16,189.41L877.35,189.19L877.63,189.27L878.2,188.61L877.56,187.25C877.49,187.1 877.52,186.94 877.61,186.82L879.03,187.24L879.22,187.01L879.5,187.09L880.07,186.43L879.43,185.07C879.35,184.91 879.39,184.76 879.48,184.64L880.9,185.06L881.09,184.83L881.37,184.91L881.94,184.25L881.3,182.89C881.23,182.74 881.26,182.58 881.35,182.47L882.77,182.89L882.96,182.67L883.24,182.75L883.81,182.09L883.17,180.73C883.1,180.58 883.13,180.42 883.22,180.3L884.64,180.72L884.83,180.49L885.11,180.57L885.68,179.91L885.04,178.55C884.97,178.39 885,178.24 885.09,178.12L886.51,178.54L886.7,178.31L886.98,178.39L887.55,177.73L886.91,176.37C886.84,176.21 886.87,176.06 886.96,175.94L888.38,176.36L888.57,176.14L888.85,176.22L889.42,175.56L888.78,174.2C888.7,174.05 888.74,173.89 888.83,173.78L890.25,174.2L890.44,173.98L890.72,174.06L891.51,173.14L884.22,167.15ZM881.75,170.58C881.22,170.5 880.85,170 880.94,169.46C881.02,168.92 881.52,168.56 882.06,168.64C882.6,168.72 882.96,169.22 882.88,169.76C882.79,170.3 882.29,170.67 881.75,170.58Z" style="fill-rule:nonzero;"/>
                </g>
            </g>
        </g>
        <g id="XMLID_16_" transform="matrix(0.7071,-0.7071,0.7071,0.7071,102.178,658.157)">
            <circle cx="845.56" cy="205.74" r="37.84"/>
        </g>
        <g id="XMLID_748_" transform="matrix(0.7071,-0.7071,0.7071,0.7071,102.178,658.157)">
            <circle cx="845.56" cy="205.74" r="34.26" style="fill:white;"/>
        </g>
        <g id="XMLID_750_" transform="matrix(0.7071,-0.7071,0.7071,0.7071,102.178,658.157)">
            <circle cx="845.56" cy="205.74" r="31.73" style="fill:rgb(239,121,24);"/>
        </g>
        <g id="XMLID_826_">
            <g id="XMLID_1042_">
                <path id="XMLID_1045_" d="M872.44,209.49C872.44,209.49 872.57,208.6 872.62,207.7C872.67,207.25 872.66,206.8 872.67,206.47C872.68,206.13 872.68,205.91 872.68,205.91C872.68,205.91 872.97,206.25 873.42,206.79C873.88,207.33 874.41,208.08 874.96,208.89C875.47,209.69 875.99,210.55 876.32,211.2C876.67,211.86 876.82,212.12 876.82,212.12C876.82,212.12 876.47,213.85 876.32,214.36C876.05,215.38 875.7,216.31 875.7,216.31C875.7,216.31 875.61,215.92 875.37,215.22C875.24,214.87 875.07,214.46 874.9,214.04C874.81,213.83 874.72,213.62 874.63,213.4C874.53,213.18 874.42,212.96 874.32,212.74C873.91,211.87 873.44,211.05 873.08,210.46C872.91,210.16 872.74,209.92 872.63,209.75C872.5,209.59 872.44,209.49 872.44,209.49Z" style="fill:rgb(239,121,24);fill-rule:nonzero;"/>
                <path id="XMLID_1044_" d="M872.66,206.34C872.66,206.34 872.7,205.44 872.66,204.55C872.66,204.1 872.61,203.65 872.59,203.32C872.57,202.98 872.55,202.76 872.55,202.76C872.55,202.76 872.88,203.07 873.37,203.57C873.88,204.07 874.48,204.76 875.11,205.51C875.69,206.26 876.3,207.06 876.69,207.68C877.1,208.3 877.28,208.25 877.28,208.25C877.28,208.25 877.17,210.32 877.07,210.84C876.9,211.89 876.65,213.17 876.65,213.17C876.65,213.17 876.44,212.45 876.13,211.78C875.96,211.44 875.76,211.06 875.55,210.65C875.44,210.45 875.33,210.24 875.22,210.04C875.1,209.83 874.97,209.63 874.84,209.42C874.35,208.6 873.8,207.82 873.38,207.27C873.18,206.99 872.99,206.77 872.86,206.61C872.74,206.43 872.66,206.34 872.66,206.34Z" style="fill-rule:nonzero;"/>
                <path id="XMLID_1043_" d="M871.79,212.57C871.79,212.57 871.81,212.52 871.83,212.42C871.86,212.33 871.89,212.19 871.93,212.03C872,211.7 872.11,211.27 872.2,210.83C872.28,210.39 872.36,209.95 872.42,209.62C872.46,209.29 872.49,209.06 872.49,209.06C872.49,209.06 872.55,209.16 872.67,209.32C872.78,209.49 872.95,209.73 873.12,210.03C873.48,210.62 873.95,211.45 874.36,212.31C874.47,212.53 874.57,212.75 874.67,212.97C874.76,213.19 874.86,213.41 874.94,213.61C875.12,214.03 875.28,214.44 875.41,214.79C875.66,215.49 875.81,215.97 875.81,215.97C875.81,215.97 875.73,216.22 875.59,216.59C875.44,216.96 875.25,217.45 875.06,217.94C874.84,218.42 874.62,218.9 874.46,219.27C874.28,219.62 874.16,219.86 874.16,219.86C874.16,219.86 873.82,217.86 873.2,216.04C873.06,215.59 872.89,215.13 872.73,214.72C872.57,214.31 872.42,213.93 872.28,213.61C871.99,212.97 871.79,212.57 871.79,212.57Z" style="fill-rule:nonzero;"/>
            </g>
            <g id="XMLID_1039_">
                <path id="XMLID_1041_" d="M870.63,215.96C870.63,215.96 870.71,215.75 870.84,215.44C870.97,215.13 871.13,214.71 871.27,214.28C871.42,213.86 871.56,213.43 871.64,213.11C871.73,212.79 871.79,212.57 871.79,212.57C871.79,212.57 871.99,212.97 872.28,213.61C872.43,213.93 872.57,214.3 872.73,214.72C872.89,215.13 873.06,215.59 873.2,216.04C873.82,217.87 874.16,219.86 874.16,219.86C874.16,219.86 873.69,220.81 873.15,221.72C872.9,222.18 872.59,222.62 872.38,222.95C872.27,223.12 872.18,223.26 872.12,223.35C872.05,223.44 872.02,223.5 872.02,223.5C872.02,223.5 872.02,223.38 872,223.15C871.98,222.93 871.96,222.62 871.93,222.24C871.88,221.5 871.73,220.51 871.57,219.58C871.38,218.62 871.17,217.72 870.96,217.05C870.86,216.72 870.78,216.44 870.72,216.25C870.67,216.07 870.63,215.96 870.63,215.96Z" style="fill:rgb(239,121,24);fill-rule:nonzero;"/>
                <path id="XMLID_1040_" d="M869.02,219.16C869.02,219.16 869.48,218.39 869.88,217.58C870.09,217.19 870.26,216.77 870.41,216.46C870.55,216.15 870.64,215.95 870.64,215.95C870.64,215.95 870.68,216.06 870.74,216.25C870.8,216.44 870.88,216.72 870.98,217.05C871.19,217.73 871.39,218.63 871.59,219.58C871.75,220.52 871.9,221.51 871.95,222.24C871.98,222.62 872,222.93 872.02,223.15C872.04,223.37 872.04,223.5 872.04,223.5C872.04,223.5 871.89,223.72 871.66,224.04C871.54,224.2 871.41,224.39 871.27,224.59C871.12,224.79 870.95,224.99 870.79,225.2C870.63,225.41 870.46,225.62 870.31,225.81C870.15,226 870,226.17 869.87,226.32C869.61,226.62 869.44,226.82 869.44,226.82C869.44,226.82 869.48,226.31 869.52,225.57C869.54,225.2 869.54,224.76 869.54,224.3C869.54,223.84 869.54,223.36 869.5,222.88C869.47,222.4 869.44,221.92 869.4,221.49C869.35,221.04 869.29,220.64 869.24,220.29C869.19,219.95 869.15,219.67 869.1,219.47C869.04,219.28 869.02,219.16 869.02,219.16Z" style="fill-rule:nonzero;"/>
            </g>
            <g id="XMLID_1036_">
                <path id="XMLID_1038_" d="M867.01,222.13C867.01,222.13 867.15,221.95 867.36,221.69C867.56,221.42 867.82,221.05 868.08,220.68C868.32,220.3 868.57,219.93 868.75,219.64C868.93,219.35 869.03,219.16 869.03,219.16C869.03,219.16 869.05,219.27 869.09,219.47C869.13,219.67 869.18,219.95 869.23,220.29C869.28,220.63 869.34,221.04 869.39,221.49C869.43,221.93 869.47,222.4 869.49,222.88C869.53,223.37 869.52,223.84 869.53,224.3C869.53,224.76 869.53,225.2 869.51,225.57C869.47,226.31 869.43,226.82 869.43,226.82C869.43,226.82 869.26,227.02 868.98,227.31C868.7,227.59 868.35,227.99 867.96,228.35C867.21,229.09 866.4,229.78 866.4,229.78C866.4,229.78 866.51,229.28 866.65,228.56C866.77,227.81 866.92,226.86 866.99,225.89C867.08,224.94 867.08,223.98 867.08,223.29C867.04,222.59 867.01,222.13 867.01,222.13Z" style="fill:rgb(239,121,24);fill-rule:nonzero;"/>
                <path id="XMLID_1037_" d="M864.63,224.81C864.63,224.81 864.8,224.66 865.02,224.41C865.25,224.16 865.57,223.85 865.86,223.51C866.15,223.17 866.46,222.84 866.66,222.57C866.87,222.31 867.01,222.13 867.01,222.13C867.01,222.13 867.04,222.59 867.06,223.29C867.06,223.98 867.06,224.94 866.97,225.89C866.91,226.86 866.75,227.81 866.63,228.56C866.49,229.29 866.38,229.78 866.38,229.78C866.38,229.78 866.18,229.95 865.88,230.21C865.57,230.46 865.15,230.78 864.74,231.11C864.31,231.42 863.88,231.72 863.56,231.95C863.23,232.17 863.01,232.31 863.01,232.31C863.01,232.31 863.72,230.41 864.1,228.52C864.21,228.06 864.29,227.58 864.36,227.14C864.43,226.7 864.49,226.31 864.53,225.95C864.59,225.26 864.63,224.81 864.63,224.81Z" style="fill-rule:nonzero;"/>
            </g>
            <g id="XMLID_1033_">
                <path id="XMLID_1035_" d="M861.91,227.16C861.91,227.16 862.09,227.02 862.35,226.81C862.62,226.61 862.97,226.33 863.3,226.03C863.47,225.88 863.64,225.74 863.8,225.6C863.95,225.46 864.1,225.32 864.22,225.2C864.46,224.97 864.63,224.81 864.63,224.81C864.63,224.81 864.6,225.26 864.52,225.96C864.49,226.31 864.42,226.71 864.35,227.15C864.28,227.59 864.2,228.07 864.09,228.53C863.71,230.42 863,232.32 863,232.32C863,232.32 862.12,232.9 861.19,233.41C860.74,233.68 860.25,233.9 859.9,234.09C859.72,234.18 859.58,234.26 859.47,234.31C859.36,234.36 859.3,234.39 859.3,234.39C859.3,234.39 859.36,234.28 859.46,234.08C859.56,233.88 859.69,233.6 859.86,233.26C860.19,232.6 860.56,231.67 860.89,230.78C861.2,229.86 861.48,228.97 861.64,228.28C861.72,227.94 861.79,227.66 861.83,227.47C861.89,227.28 861.91,227.16 861.91,227.16Z" style="fill:rgb(239,121,24);fill-rule:nonzero;"/>
                <path id="XMLID_1034_" d="M858.91,229.12C858.91,229.12 859.7,228.69 860.44,228.19C860.82,227.96 861.18,227.68 861.46,227.49C861.6,227.39 861.71,227.31 861.79,227.25C861.87,227.19 861.91,227.16 861.91,227.16C861.91,227.16 861.89,227.28 861.85,227.47C861.8,227.67 861.74,227.95 861.66,228.28C861.5,228.97 861.22,229.85 860.91,230.78C860.58,231.67 860.21,232.6 859.88,233.26C859.72,233.6 859.58,233.88 859.48,234.08C859.38,234.28 859.32,234.39 859.32,234.39C859.32,234.39 859.08,234.5 858.72,234.66C858.54,234.74 858.33,234.84 858.1,234.94C857.87,235.03 857.62,235.13 857.38,235.23C857.13,235.33 856.89,235.42 856.66,235.51C856.43,235.6 856.21,235.67 856.02,235.73C855.64,235.86 855.39,235.94 855.39,235.94C855.39,235.94 855.68,235.52 856.09,234.9C856.3,234.6 856.52,234.21 856.75,233.82C856.98,233.42 857.22,233.01 857.44,232.57C857.66,232.14 857.87,231.71 858.05,231.31C858.23,230.9 858.39,230.52 858.51,230.2C858.64,229.88 858.74,229.61 858.81,229.42C858.87,229.23 858.91,229.12 858.91,229.12Z" style="fill-rule:nonzero;"/>
            </g>
            <g id="XMLID_1030_">
                <path id="XMLID_1032_" d="M855.68,230.67C855.68,230.67 855.89,230.59 856.2,230.46C856.51,230.32 856.92,230.14 857.32,229.95C857.72,229.75 858.12,229.54 858.42,229.39C858.72,229.23 858.91,229.12 858.91,229.12C858.91,229.12 858.87,229.23 858.81,229.42C858.75,229.62 858.64,229.88 858.51,230.2C858.38,230.52 858.22,230.9 858.05,231.31C857.87,231.71 857.66,232.13 857.44,232.57C857.22,233.01 856.98,233.42 856.75,233.82C856.52,234.21 856.3,234.6 856.09,234.9C855.68,235.52 855.39,235.94 855.39,235.94C855.39,235.94 855.14,236.03 854.76,236.14C854.38,236.24 853.87,236.4 853.36,236.53C852.84,236.65 852.33,236.77 851.94,236.85C851.55,236.92 851.29,236.97 851.29,236.97C851.29,236.97 851.38,236.88 851.52,236.72C851.67,236.56 851.88,236.34 852.12,236.04C852.6,235.46 853.22,234.71 853.76,233.91C854.32,233.14 854.8,232.3 855.14,231.71C855.47,231.08 855.68,230.67 855.68,230.67Z" style="fill:rgb(239,121,24);fill-rule:nonzero;"/>
                <path id="XMLID_1031_" d="M852.27,231.79C852.27,231.79 852.33,231.78 852.42,231.75C852.51,231.72 852.65,231.68 852.81,231.64C853.13,231.54 853.57,231.44 853.99,231.29C854.85,231.02 855.67,230.68 855.67,230.68C855.67,230.68 855.47,231.09 855.13,231.71C854.78,232.3 854.3,233.13 853.75,233.91C853.2,234.71 852.59,235.47 852.11,236.04C851.87,236.33 851.66,236.55 851.51,236.72C851.36,236.88 851.28,236.97 851.28,236.97C851.28,236.97 851.02,237.02 850.63,237.09C850.24,237.16 849.71,237.21 849.19,237.28C848.67,237.35 848.14,237.37 847.74,237.41C847.54,237.42 847.38,237.44 847.26,237.45C847.14,237.45 847.08,237.46 847.08,237.46C847.08,237.46 847.18,237.39 847.35,237.24C847.51,237.09 847.75,236.89 848.03,236.64C848.59,236.16 849.29,235.45 849.94,234.75C850.27,234.4 850.58,234.02 850.86,233.69C851.14,233.35 851.39,233.03 851.6,232.75C852.01,232.16 852.27,231.79 852.27,231.79Z" style="fill-rule:nonzero;"/>
            </g>
            <g id="XMLID_1027_">
                <path id="XMLID_1029_" d="M848.74,232.43C848.74,232.43 848.96,232.4 849.3,232.36C849.64,232.33 850.08,232.24 850.52,232.16C850.96,232.09 851.4,231.99 851.73,231.91C852.06,231.83 852.28,231.78 852.28,231.78C852.28,231.78 852.02,232.15 851.61,232.71C851.4,233 851.15,233.32 850.87,233.65C850.59,233.99 850.28,234.36 849.95,234.71C849.3,235.41 848.6,236.11 848.04,236.6C847.76,236.85 847.52,237.06 847.36,237.2C847.19,237.35 847.09,237.42 847.09,237.42C847.09,237.42 846.83,237.43 846.43,237.44C846.03,237.45 845.51,237.47 844.98,237.45C844.45,237.43 843.92,237.43 843.53,237.39C843.13,237.36 842.87,237.34 842.87,237.34C842.87,237.34 843.3,237.07 843.92,236.66C844.23,236.45 844.58,236.19 844.95,235.91C845.32,235.64 845.7,235.34 846.07,235.02C846.44,234.71 846.8,234.4 847.12,234.1C847.44,233.79 847.74,233.5 847.98,233.25C848.44,232.79 848.74,232.43 848.74,232.43Z" style="fill:rgb(239,121,24);fill-rule:nonzero;"/>
                <path id="XMLID_1028_" d="M845.16,232.61C845.16,232.61 845.38,232.62 845.72,232.62C846.06,232.61 846.51,232.6 846.96,232.59C847.41,232.56 847.86,232.52 848.19,232.5C848.36,232.49 848.5,232.47 848.59,232.46C848.69,232.45 848.74,232.44 848.74,232.44C848.74,232.44 848.44,232.8 847.95,233.28C847.71,233.53 847.41,233.82 847.09,234.13C846.77,234.43 846.41,234.74 846.04,235.05C845.67,235.37 845.29,235.66 844.92,235.94C844.55,236.21 844.2,236.48 843.89,236.69C843.28,237.1 842.84,237.37 842.84,237.37C842.84,237.37 842.58,237.36 842.18,237.31C841.79,237.26 841.26,237.19 840.74,237.13C840.22,237.04 839.7,236.95 839.31,236.88C839.11,236.85 838.95,236.81 838.84,236.78C838.73,236.75 838.66,236.74 838.66,236.74C838.66,236.74 839.12,236.55 839.79,236.19C840.12,236.02 840.51,235.82 840.9,235.6C841.3,235.37 841.72,235.11 842.12,234.86C842.52,234.61 842.92,234.33 843.28,234.08C843.64,233.82 843.97,233.59 844.24,233.37C844.81,232.9 845.16,232.61 845.16,232.61Z" style="fill-rule:nonzero;"/>
            </g>
            <g id="XMLID_876_">
                <path id="XMLID_952_" d="M841.58,232.32C841.58,232.32 841.8,232.35 842.14,232.39C842.47,232.44 842.92,232.49 843.37,232.52C843.82,232.55 844.26,232.59 844.6,232.59C844.94,232.6 845.16,232.6 845.16,232.6C845.16,232.6 844.82,232.89 844.27,233.34C844,233.56 843.67,233.79 843.31,234.05C842.95,234.31 842.55,234.59 842.15,234.83C841.74,235.08 841.33,235.34 840.93,235.57C840.53,235.79 840.15,235.99 839.82,236.16C839.15,236.51 838.69,236.71 838.69,236.71C838.69,236.71 838.43,236.65 838.05,236.56C837.66,236.48 837.15,236.33 836.64,236.18C836.13,236.04 835.63,235.87 835.25,235.74C834.87,235.61 834.62,235.53 834.62,235.53C834.62,235.53 835.11,235.38 835.81,235.13C836.51,234.9 837.44,234.51 838.3,234.12C839.18,233.7 840,233.27 840.6,232.9C840.9,232.72 841.14,232.57 841.31,232.47C841.48,232.39 841.58,232.32 841.58,232.32Z" style="fill:rgb(239,121,24);fill-rule:nonzero;"/>
                <path id="XMLID_877_" d="M838.08,231.56C838.08,231.56 838.3,231.62 838.62,231.71C838.94,231.8 839.38,231.89 839.82,232C840.26,232.11 840.7,232.16 841.03,232.23C841.2,232.26 841.33,232.28 841.43,232.3C841.53,232.31 841.58,232.32 841.58,232.32C841.58,232.32 841.48,232.39 841.31,232.49C841.14,232.59 840.89,232.74 840.6,232.92C840,233.29 839.17,233.72 838.3,234.14C837.43,234.53 836.51,234.92 835.81,235.15C835.11,235.39 834.62,235.55 834.62,235.55C834.62,235.55 834.37,235.45 834,235.31C833.63,235.16 833.13,234.98 832.66,234.75C832.18,234.53 831.69,234.32 831.34,234.13C830.99,233.95 830.75,233.83 830.75,233.83C830.75,233.83 831.25,233.75 831.98,233.61C832.35,233.53 832.77,233.43 833.22,233.32C833.44,233.26 833.67,233.2 833.9,233.14C834.13,233.07 834.36,233 834.59,232.93C835.51,232.65 836.39,232.31 837.03,232.04C837.35,231.91 837.61,231.79 837.8,231.7C837.97,231.61 838.08,231.56 838.08,231.56Z" style="fill-rule:nonzero;"/>
            </g>
            <g id="XMLID_873_">
                <path id="XMLID_875_" d="M834.71,230.35C834.71,230.35 834.76,230.37 834.85,230.41C834.94,230.45 835.07,230.51 835.22,230.57C835.53,230.69 835.95,230.86 836.37,231.02C836.79,231.16 837.22,231.31 837.54,231.41C837.86,231.5 838.08,231.56 838.08,231.56C838.08,231.56 837.98,231.61 837.79,231.7C837.61,231.79 837.34,231.91 837.02,232.04C836.38,232.31 835.5,232.65 834.58,232.93C834.35,233 834.11,233.07 833.89,233.14C833.66,233.2 833.43,233.26 833.21,233.32C832.77,233.43 832.34,233.53 831.97,233.61C831.24,233.75 830.74,233.83 830.74,233.83C830.74,233.83 830.68,233.8 830.58,233.75C830.48,233.7 830.33,233.62 830.16,233.52C829.82,233.32 829.35,233.06 828.9,232.79C828.45,232.5 828.01,232.22 827.68,232C827.36,231.77 827.14,231.62 827.14,231.62C827.14,231.62 829.17,231.58 831.06,231.23C831.53,231.16 832,231.06 832.43,230.96C832.86,230.86 833.25,230.77 833.59,230.67C834.28,230.48 834.71,230.35 834.71,230.35Z" style="fill:rgb(239,121,24);fill-rule:nonzero;"/>
                <path id="XMLID_874_" d="M831.52,228.7C831.52,228.7 831.71,228.81 832.01,228.98C832.3,229.15 832.69,229.38 833.09,229.57C833.49,229.77 833.89,229.98 834.2,230.11C834.51,230.25 834.71,230.34 834.71,230.34C834.71,230.34 834.28,230.48 833.6,230.67C833.26,230.77 832.87,230.85 832.44,230.96C832.01,231.06 831.54,231.16 831.07,231.23C829.17,231.58 827.15,231.62 827.15,231.62C827.15,231.62 826.93,231.47 826.61,231.24C826.29,231.01 825.88,230.67 825.46,230.35C825.04,230.02 824.66,229.66 824.35,229.41C824.05,229.15 823.86,228.97 823.86,228.97C823.86,228.97 823.98,228.98 824.2,229.01C824.42,229.02 824.73,229.05 825.11,229.07C825.85,229.12 826.84,229.13 827.8,229.11C828.77,229.06 829.69,228.99 830.39,228.88C831.08,228.78 831.52,228.7 831.52,228.7Z" style="fill-rule:nonzero;"/>
            </g>
            <g id="XMLID_870_">
                <path id="XMLID_872_" d="M828.59,226.63C828.59,226.63 828.77,226.77 829.03,226.98C829.29,227.2 829.66,227.45 830.02,227.71C830.38,227.98 830.76,228.21 831.05,228.39C831.33,228.57 831.52,228.69 831.52,228.69C831.52,228.69 831.08,228.77 830.38,228.86C829.68,228.97 828.76,229.04 827.79,229.09C826.84,229.12 825.84,229.11 825.1,229.05C824.72,229.02 824.41,229 824.19,228.99C823.97,228.97 823.85,228.95 823.85,228.95C823.85,228.95 823.66,228.77 823.37,228.49C823.08,228.22 822.71,227.84 822.35,227.46C821.98,227.08 821.63,226.68 821.37,226.38C821.11,226.08 820.94,225.88 820.94,225.88C820.94,225.88 821.44,226 822.17,226.14C822.53,226.22 822.96,226.29 823.42,226.35C823.88,226.41 824.35,226.49 824.83,226.52C825.31,226.56 825.79,226.59 826.23,226.62C826.67,226.64 827.09,226.64 827.43,226.64C828.13,226.67 828.59,226.63 828.59,226.63Z" style="fill:rgb(239,121,24);fill-rule:nonzero;"/>
                <path id="XMLID_871_" d="M825.95,224.21C825.95,224.21 826.1,224.37 826.34,224.62C826.58,224.85 826.91,225.16 827.23,225.47C827.56,225.77 827.91,226.06 828.16,226.28C828.29,226.39 828.4,226.48 828.47,226.54C828.55,226.6 828.59,226.64 828.59,226.64C828.59,226.64 828.13,226.67 827.44,226.67C827.09,226.67 826.68,226.67 826.24,226.65C825.8,226.63 825.33,226.59 824.84,226.55C824.35,226.51 823.89,226.44 823.43,226.38C822.97,226.32 822.54,226.25 822.18,226.17C821.45,226.02 820.95,225.91 820.95,225.91C820.95,225.91 820.78,225.71 820.54,225.39C820.3,225.08 819.96,224.67 819.66,224.23C819.36,223.8 819.04,223.37 818.83,223.03C818.62,222.7 818.47,222.47 818.47,222.47C818.47,222.47 818.95,222.65 819.65,222.9C820.01,223.02 820.43,223.14 820.86,223.27C821.29,223.4 821.77,223.52 822.24,223.63C823.17,223.85 824.11,224 824.8,224.09C825.14,224.14 825.44,224.16 825.64,224.18C825.83,224.2 825.95,224.21 825.95,224.21Z" style="fill-rule:nonzero;"/>
            </g>
            <g id="XMLID_867_">
                <path id="XMLID_869_" d="M823.64,221.46C823.64,221.46 823.67,221.51 823.73,221.59C823.78,221.67 823.87,221.78 823.98,221.91C824.19,222.17 824.46,222.53 824.75,222.88C825.05,223.22 825.33,223.56 825.56,223.81C825.79,224.05 825.95,224.22 825.95,224.22C825.95,224.22 825.84,224.21 825.64,224.19C825.44,224.17 825.14,224.15 824.8,224.1C824.12,224.01 823.17,223.86 822.24,223.64C821.77,223.54 821.29,223.42 820.86,223.28C820.42,223.15 820,223.03 819.65,222.91C818.95,222.67 818.47,222.48 818.47,222.48C818.47,222.48 818.43,222.42 818.37,222.33C818.31,222.23 818.22,222.1 818.12,221.92C817.92,221.58 817.65,221.12 817.4,220.66C817.16,220.19 816.92,219.72 816.74,219.36C816.58,219 816.47,218.76 816.47,218.76C816.47,218.76 818.24,219.75 820.05,220.4C820.49,220.57 820.95,220.72 821.37,220.86C821.8,220.99 822.18,221.11 822.52,221.2C823.2,221.36 823.64,221.46 823.64,221.46Z" style="fill:rgb(239,121,24);fill-rule:nonzero;"/>
                <path id="XMLID_868_" d="M821.72,218.43C821.72,218.43 821.83,218.62 822,218.92C822.17,219.21 822.39,219.6 822.64,219.98C822.88,220.36 823.12,220.74 823.32,221.01C823.51,221.28 823.64,221.47 823.64,221.47C823.64,221.47 823.2,221.37 822.52,221.2C822.18,221.11 821.8,220.99 821.37,220.86C820.94,220.73 820.49,220.58 820.05,220.4C818.24,219.75 816.47,218.76 816.47,218.76C816.47,218.76 816.36,218.52 816.2,218.16C816.03,217.8 815.85,217.3 815.66,216.81C815.46,216.32 815.31,215.81 815.18,215.44C815.12,215.25 815.06,215.1 815.03,214.99C815,214.88 814.98,214.82 814.98,214.82C814.98,214.82 815.08,214.9 815.26,215.02C815.44,215.14 815.7,215.32 816.01,215.53C816.62,215.95 817.48,216.46 818.31,216.92C819.18,217.37 820.01,217.77 820.67,218.03C821.3,218.27 821.72,218.43 821.72,218.43Z" style="fill-rule:nonzero;"/>
            </g>
            <g id="XMLID_864_">
                <path id="XMLID_866_" d="M820.22,215.17C820.22,215.17 820.3,215.38 820.43,215.69C820.54,216.01 820.74,216.41 820.92,216.82C821.1,217.23 821.31,217.63 821.46,217.93C821.61,218.23 821.72,218.43 821.72,218.43C821.72,218.43 821.3,218.27 820.65,218.01C819.99,217.75 819.16,217.35 818.29,216.9C817.46,216.44 816.6,215.93 815.99,215.51C815.68,215.3 815.42,215.12 815.24,215C815.06,214.87 814.96,214.8 814.96,214.8C814.96,214.8 814.89,214.55 814.78,214.16C814.73,213.97 814.66,213.75 814.6,213.51C814.54,213.27 814.48,213.01 814.42,212.75C814.36,212.49 814.3,212.23 814.25,211.99C814.2,211.75 814.16,211.52 814.13,211.32C814.06,210.93 814.01,210.67 814.01,210.67C814.01,210.67 814.38,211.02 814.93,211.52C815.2,211.77 815.55,212.04 815.9,212.33C816.26,212.62 816.63,212.92 817.03,213.19C817.43,213.47 817.82,213.74 818.18,213.98C818.56,214.22 818.91,214.43 819.21,214.6C819.81,214.97 820.22,215.17 820.22,215.17Z" style="fill:rgb(239,121,24);fill-rule:nonzero;"/>
                <path id="XMLID_865_" d="M819.17,211.75C819.17,211.75 819.22,211.97 819.3,212.3C819.39,212.62 819.51,213.05 819.64,213.49C819.78,213.92 819.93,214.34 820.03,214.66C820.08,214.82 820.14,214.95 820.17,215.04C820.21,215.13 820.23,215.18 820.23,215.18C820.23,215.18 819.81,214.98 819.22,214.62C818.92,214.44 818.57,214.23 818.19,214C817.83,213.76 817.43,213.49 817.04,213.21C816.64,212.93 816.27,212.63 815.91,212.35C815.56,212.06 815.21,211.79 814.94,211.54C814.39,211.04 814.02,210.69 814.02,210.69C814.02,210.69 813.96,210.43 813.92,210.04C813.87,209.65 813.8,209.12 813.75,208.6C813.71,208.07 813.67,207.55 813.64,207.15C813.63,206.75 813.62,206.49 813.62,206.49C813.62,206.49 814.87,208.08 816.29,209.39C816.97,210.06 817.73,210.65 818.26,211.08C818.8,211.49 819.17,211.75 819.17,211.75Z" style="fill-rule:nonzero;"/>
            </g>
            <g id="XMLID_861_">
                <path id="XMLID_863_" d="M818.57,208.21C818.57,208.21 818.6,208.43 818.64,208.77C818.69,209.1 818.72,209.55 818.81,209.99C818.95,210.88 819.17,211.75 819.17,211.75C819.17,211.75 818.8,211.49 818.23,211.07C817.7,210.64 816.94,210.04 816.26,209.38C814.84,208.07 813.59,206.48 813.59,206.48C813.59,206.48 813.55,205.42 813.59,204.37C813.59,203.84 813.65,203.31 813.67,202.92C813.7,202.52 813.72,202.26 813.72,202.26C813.72,202.26 813.99,202.7 814.4,203.32C814.79,203.94 815.41,204.74 815.99,205.49C816.62,206.24 817.22,206.93 817.73,207.43C818.24,207.9 818.57,208.21 818.57,208.21Z" style="fill:rgb(239,121,24);fill-rule:nonzero;"/>
                <path id="XMLID_862_" d="M818.46,204.62C818.46,204.62 818.42,205.52 818.46,206.42C818.46,206.87 818.51,207.32 818.53,207.65C818.56,207.99 818.57,208.21 818.57,208.21C818.57,208.21 818.24,207.9 817.75,207.41C817.24,206.92 816.64,206.22 816.01,205.47C815.43,204.73 814.82,203.93 814.42,203.3C814.01,202.68 813.74,202.24 813.74,202.24C813.74,202.24 813.77,201.98 813.82,201.58C813.88,201.19 813.92,200.66 814.03,200.14C814.2,199.09 814.45,198.07 814.45,198.07C814.45,198.07 814.65,198.54 814.97,199.21C815.32,199.89 815.75,200.75 816.28,201.57C816.77,202.39 817.33,203.16 817.75,203.72C817.95,204 818.14,204.22 818.27,204.38C818.38,204.53 818.46,204.62 818.46,204.62Z" style="fill-rule:nonzero;"/>
            </g>
            <g id="XMLID_858_">
                <path id="XMLID_860_" d="M818.8,201.05C818.8,201.05 818.75,201.27 818.71,201.6C818.67,201.93 818.6,202.38 818.56,202.82C818.53,203.27 818.49,203.72 818.47,204.05C818.46,204.39 818.46,204.61 818.46,204.61C818.46,204.61 818.39,204.52 818.26,204.37C818.13,204.21 817.94,203.99 817.74,203.71C817.32,203.16 816.77,202.38 816.27,201.56C815.74,200.74 815.32,199.88 814.96,199.2C814.64,198.53 814.44,198.06 814.44,198.06C814.44,198.06 814.5,197.8 814.59,197.42C814.7,197.04 814.84,196.53 814.99,196.02C815.16,195.52 815.33,195.02 815.45,194.64C815.51,194.45 815.57,194.3 815.62,194.19C815.66,194.08 815.69,194.02 815.69,194.02C815.69,194.02 815.81,194.5 816.06,195.22C816.18,195.57 816.32,195.98 816.48,196.41C816.65,196.84 816.84,197.29 817.03,197.73C817.21,198.17 817.44,198.6 817.64,198.99C817.85,199.39 818.02,199.74 818.21,200.05C818.56,200.67 818.8,201.05 818.8,201.05Z" style="fill:rgb(239,121,24);fill-rule:nonzero;"/>
                <path id="XMLID_859_" d="M819.61,197.56C819.61,197.56 819.55,197.78 819.46,198.1C819.41,198.26 819.36,198.45 819.3,198.65C819.25,198.85 819.2,199.07 819.15,199.29C819.1,199.51 819.05,199.73 819,199.93C818.96,200.14 818.93,200.33 818.9,200.5C818.84,200.83 818.8,201.05 818.8,201.05C818.8,201.05 818.56,200.67 818.21,200.06C818.03,199.75 817.85,199.4 817.64,199C817.44,198.61 817.22,198.17 817.03,197.74C816.84,197.3 816.65,196.85 816.48,196.42C816.32,195.99 816.18,195.59 816.06,195.23C815.81,194.52 815.69,194.03 815.69,194.03C815.69,194.03 815.79,193.78 815.93,193.41C816.07,193.04 816.29,192.56 816.51,192.08C816.72,191.59 816.97,191.13 817.15,190.77C817.33,190.42 817.45,190.18 817.45,190.18C817.45,190.18 817.74,192.2 818.29,194.03C818.57,194.96 818.87,195.84 819.15,196.49C819.28,196.81 819.39,197.07 819.47,197.26C819.55,197.45 819.61,197.56 819.61,197.56Z" style="fill-rule:nonzero;"/>
            </g>
            <g id="XMLID_855_">
                <path id="XMLID_857_" d="M820.88,194.21C820.88,194.21 820.79,194.41 820.65,194.72C820.51,195.02 820.36,195.45 820.19,195.86C820.02,196.27 819.9,196.71 819.78,197.02C819.73,197.18 819.68,197.31 819.65,197.4C819.62,197.49 819.61,197.55 819.61,197.55C819.61,197.55 819.56,197.44 819.48,197.26C819.4,197.07 819.29,196.81 819.16,196.49C818.88,195.84 818.58,194.96 818.3,194.03C817.75,192.19 817.46,190.18 817.46,190.18C817.46,190.18 817.59,189.95 817.79,189.61C817.99,189.27 818.25,188.8 818.54,188.36C818.82,187.91 819.11,187.47 819.35,187.15C819.58,186.83 819.73,186.61 819.73,186.61C819.73,186.61 819.74,187.12 819.77,187.86C819.79,188.23 819.83,188.67 819.87,189.12C819.91,189.58 819.97,190.05 820.05,190.53C820.13,191.01 820.2,191.47 820.3,191.91C820.4,192.35 820.49,192.75 820.57,193.08C820.65,193.41 820.73,193.69 820.79,193.89C820.85,194.1 820.88,194.21 820.88,194.21Z" style="fill:rgb(239,121,24);fill-rule:nonzero;"/>
                <path id="XMLID_856_" d="M822.58,191.05C822.58,191.05 822.55,191.1 822.5,191.18C822.45,191.26 822.37,191.38 822.29,191.53C822.12,191.82 821.9,192.21 821.68,192.6C821.48,193 821.27,193.4 821.12,193.7C820.98,194.01 820.89,194.21 820.89,194.21C820.89,194.21 820.86,194.1 820.8,193.91C820.74,193.72 820.66,193.44 820.58,193.1C820.5,192.76 820.4,192.37 820.31,191.93C820.22,191.49 820.14,191.03 820.06,190.55C819.98,190.07 819.92,189.59 819.88,189.14C819.84,188.69 819.79,188.25 819.78,187.88C819.75,187.14 819.74,186.63 819.74,186.63C819.74,186.63 819.78,186.58 819.85,186.48C819.92,186.38 820.01,186.25 820.14,186.1C820.39,185.79 820.7,185.37 821.05,184.96C821.4,184.56 821.74,184.16 822.01,183.87C822.28,183.58 822.47,183.39 822.47,183.39C822.47,183.39 822.46,183.52 822.43,183.73C822.41,183.95 822.37,184.25 822.35,184.63C822.3,185.38 822.25,186.35 822.28,187.32C822.28,187.8 822.31,188.27 822.35,188.72C822.39,189.16 822.42,189.57 822.46,189.91C822.51,190.61 822.58,191.05 822.58,191.05Z" style="fill-rule:nonzero;"/>
            </g>
            <g id="XMLID_852_">
                <path id="XMLID_854_" d="M824.68,188.14C824.68,188.14 824.54,188.31 824.33,188.58C824.13,188.85 823.83,189.19 823.58,189.56C823.32,189.93 823.05,190.29 822.88,190.57C822.7,190.85 822.58,191.04 822.58,191.04C822.58,191.04 822.51,190.59 822.41,189.89C822.37,189.55 822.34,189.14 822.3,188.7C822.26,188.25 822.24,187.78 822.23,187.3C822.2,186.33 822.25,185.36 822.3,184.61C822.32,184.23 822.36,183.93 822.38,183.71C822.4,183.49 822.42,183.37 822.42,183.37C822.42,183.37 822.6,183.18 822.88,182.89C823.16,182.61 823.55,182.25 823.93,181.88C824.32,181.52 824.73,181.18 825.02,180.92C825.17,180.79 825.3,180.69 825.39,180.61C825.48,180.54 825.53,180.5 825.53,180.5C825.53,180.5 825.39,180.98 825.25,181.72C825.18,182.09 825.09,182.51 825.01,182.96C824.94,183.42 824.88,183.9 824.82,184.37C824.76,184.84 824.73,185.33 824.7,185.77C824.67,186.21 824.65,186.62 824.66,186.97C824.67,187.7 824.68,188.14 824.68,188.14Z" style="fill:rgb(239,121,24);fill-rule:nonzero;"/>
                <path id="XMLID_853_" d="M827.15,185.54C827.15,185.54 826.99,185.69 826.74,185.93C826.49,186.16 826.18,186.48 825.87,186.81C825.55,187.13 825.26,187.47 825.04,187.72C824.82,187.97 824.67,188.14 824.67,188.14C824.67,188.14 824.66,187.69 824.66,186.99C824.66,186.64 824.67,186.23 824.7,185.79C824.73,185.35 824.76,184.86 824.82,184.39C824.88,183.92 824.94,183.43 825.01,182.98C825.08,182.53 825.17,182.11 825.25,181.74C825.4,181 825.53,180.52 825.53,180.52C825.53,180.52 825.74,180.36 826.05,180.11C826.36,179.86 826.79,179.56 827.22,179.25C827.65,178.94 828.1,178.66 828.43,178.44C828.76,178.23 828.99,178.08 828.99,178.08C828.99,178.08 828.23,179.97 827.78,181.83C827.56,182.77 827.37,183.69 827.28,184.39C827.23,184.73 827.19,185.02 827.17,185.22C827.16,185.43 827.15,185.54 827.15,185.54Z" style="fill-rule:nonzero;"/>
            </g>
            <g id="XMLID_849_">
                <path id="XMLID_851_" d="M829.94,183.29C829.94,183.29 829.76,183.42 829.48,183.61C829.2,183.8 828.86,184.09 828.5,184.37C828.15,184.64 827.82,184.95 827.56,185.17C827.3,185.39 827.14,185.55 827.14,185.55C827.14,185.55 827.15,185.43 827.17,185.23C827.2,185.03 827.24,184.75 827.28,184.4C827.37,183.7 827.55,182.79 827.78,181.84C828.23,179.98 828.99,178.09 828.99,178.09C828.99,178.09 829.22,177.96 829.56,177.76C829.9,177.56 830.36,177.29 830.83,177.06C831.3,176.82 831.77,176.57 832.14,176.42C832.5,176.26 832.74,176.15 832.74,176.15C832.74,176.15 832.49,176.6 832.15,177.25C831.98,177.58 831.8,177.98 831.6,178.4C831.41,178.81 831.22,179.26 831.04,179.71C830.87,180.16 830.7,180.6 830.56,181.02C830.42,181.45 830.3,181.84 830.21,182.17C830.11,182.5 830.04,182.78 830,182.98C829.97,183.17 829.94,183.29 829.94,183.29Z" style="fill:rgb(239,121,24);fill-rule:nonzero;"/>
                <path id="XMLID_850_" d="M833,181.41C833,181.41 832.95,181.44 832.86,181.48C832.77,181.53 832.65,181.58 832.5,181.67C832.21,181.84 831.82,182.06 831.43,182.29C831.05,182.53 830.67,182.77 830.39,182.96C830.12,183.16 829.93,183.29 829.93,183.29C829.93,183.29 829.96,183.18 830,182.98C830.05,182.78 830.12,182.5 830.21,182.17C830.31,181.84 830.43,181.45 830.56,181.02C830.7,180.6 830.87,180.16 831.04,179.71C831.21,179.25 831.4,178.81 831.6,178.4C831.79,177.99 831.97,177.58 832.15,177.25C832.49,176.59 832.74,176.15 832.74,176.15C832.74,176.15 832.8,176.12 832.91,176.08C833.01,176.03 833.17,175.96 833.35,175.89C833.72,175.75 834.21,175.54 834.71,175.36C835.21,175.19 835.71,175.02 836.09,174.9C836.47,174.79 836.73,174.72 836.73,174.72C836.73,174.72 836.65,174.82 836.52,175C836.39,175.18 836.2,175.42 835.99,175.74C835.57,176.36 835.03,177.18 834.57,178.03C834.46,178.24 834.34,178.45 834.23,178.65C834.13,178.86 834.02,179.07 833.92,179.27C833.73,179.67 833.55,180.04 833.42,180.35C833.16,180.99 833,181.41 833,181.41Z" style="fill-rule:nonzero;"/>
            </g>
            <g id="XMLID_846_">
                <path id="XMLID_848_" d="M836.28,179.96C836.28,179.96 836.07,180.04 835.76,180.16C835.45,180.29 835.03,180.44 834.62,180.63C834.21,180.82 833.8,180.99 833.5,181.15C833.2,181.3 833,181.41 833,181.41C833,181.41 833.16,180.99 833.43,180.34C833.57,180.02 833.74,179.66 833.93,179.26C834.03,179.06 834.13,178.85 834.24,178.64C834.35,178.43 834.47,178.23 834.58,178.02C835.04,177.17 835.57,176.35 836,175.73C836.21,175.41 836.4,175.17 836.53,174.99C836.66,174.81 836.74,174.71 836.74,174.71C836.74,174.71 836.99,174.64 837.38,174.53C837.76,174.42 838.28,174.31 838.8,174.19C839.31,174.06 839.84,173.99 840.23,173.92C840.43,173.89 840.59,173.86 840.7,173.84C840.81,173.82 840.88,173.82 840.88,173.82C840.88,173.82 840.79,173.9 840.64,174.07C840.49,174.23 840.28,174.46 840.02,174.74C839.51,175.28 838.89,176.05 838.31,176.81C837.74,177.6 837.21,178.36 836.86,178.97C836.49,179.57 836.28,179.96 836.28,179.96Z" style="fill:rgb(239,121,24);fill-rule:nonzero;"/>
                <path id="XMLID_847_" d="M839.72,178.96C839.72,178.96 839.5,179.01 839.17,179.09C838.84,179.16 838.41,179.29 837.98,179.41C837.55,179.52 837.12,179.67 836.8,179.78C836.48,179.89 836.27,179.96 836.27,179.96C836.27,179.96 836.49,179.57 836.84,178.97C837.19,178.35 837.72,177.6 838.29,176.81C838.87,176.05 839.5,175.28 840,174.74C840.26,174.46 840.47,174.23 840.62,174.07C840.77,173.91 840.86,173.82 840.86,173.82C840.86,173.82 841.12,173.79 841.52,173.74C841.91,173.69 842.44,173.62 842.97,173.59C843.5,173.55 844.02,173.51 844.42,173.5C844.82,173.49 845.08,173.48 845.08,173.48C845.08,173.48 844.68,173.79 844.11,174.26C843.83,174.5 843.5,174.8 843.16,175.1C842.82,175.41 842.47,175.74 842.14,176.09C841.8,176.44 841.48,176.78 841.19,177.11C840.9,177.45 840.64,177.77 840.42,178.04C839.98,178.58 839.72,178.96 839.72,178.96Z" style="fill-rule:nonzero;"/>
            </g>
            <g id="XMLID_843_">
                <path id="XMLID_845_" d="M843.26,178.43C843.26,178.43 843.04,178.44 842.7,178.48C842.37,178.52 841.92,178.58 841.48,178.64C841.04,178.72 840.6,178.8 840.27,178.86C840.1,178.89 839.97,178.92 839.87,178.94C839.77,178.96 839.72,178.97 839.72,178.97C839.72,178.97 839.98,178.59 840.42,178.05C840.64,177.78 840.9,177.46 841.19,177.12C841.48,176.79 841.81,176.45 842.14,176.1C842.47,175.74 842.82,175.42 843.16,175.11C843.5,174.8 843.82,174.5 844.11,174.27C844.68,173.8 845.08,173.49 845.08,173.49C845.08,173.49 845.34,173.48 845.74,173.48C846.14,173.49 846.66,173.5 847.19,173.52C847.72,173.56 848.24,173.6 848.64,173.63C848.84,173.64 849,173.67 849.12,173.68C849.23,173.69 849.3,173.7 849.3,173.7C849.3,173.7 848.86,173.94 848.23,174.36C847.92,174.56 847.56,174.8 847.18,175.06C846.81,175.33 846.42,175.63 846.04,175.92C845.66,176.21 845.3,176.52 844.96,176.82C844.63,177.11 844.33,177.38 844.07,177.62C843.58,178.1 843.26,178.43 843.26,178.43Z" style="fill:rgb(239,121,24);fill-rule:nonzero;"/>
                <path id="XMLID_844_" d="M846.86,178.35C846.86,178.35 846.64,178.34 846.3,178.34C845.96,178.33 845.51,178.31 845.06,178.34C844.61,178.35 844.16,178.35 843.83,178.39C843.49,178.42 843.27,178.43 843.27,178.43C843.27,178.43 843.58,178.1 844.08,177.61C844.33,177.37 844.63,177.1 844.97,176.81C845.3,176.51 845.67,176.2 846.05,175.91C846.43,175.62 846.82,175.32 847.19,175.05C847.56,174.79 847.92,174.55 848.24,174.35C848.87,173.93 849.31,173.69 849.31,173.69C849.31,173.69 849.57,173.72 849.97,173.77C850.36,173.81 850.89,173.91 851.41,174C851.93,174.08 852.45,174.2 852.83,174.3C853.22,174.39 853.47,174.45 853.47,174.45C853.47,174.45 853,174.65 852.32,174.96C851.98,175.11 851.59,175.3 851.19,175.53C850.78,175.75 850.36,175.97 849.95,176.22C849.12,176.73 848.34,177.23 847.78,177.66C847.5,177.87 847.27,178.04 847.11,178.16C846.94,178.28 846.86,178.35 846.86,178.35Z" style="fill-rule:nonzero;"/>
            </g>
            <g id="XMLID_840_">
                <path id="XMLID_842_" d="M850.42,178.76C850.42,178.76 850.2,178.72 849.87,178.66C849.54,178.6 849.09,178.56 848.65,178.5C848.21,178.44 847.76,178.43 847.42,178.39C847.25,178.38 847.11,178.37 847.01,178.36C846.91,178.36 846.86,178.35 846.86,178.35C846.86,178.35 846.95,178.27 847.11,178.15C847.27,178.03 847.5,177.86 847.78,177.65C848.34,177.22 849.12,176.71 849.95,176.21C850.36,175.96 850.79,175.74 851.19,175.52C851.6,175.3 851.99,175.11 852.32,174.95C852.99,174.64 853.47,174.44 853.47,174.44C853.47,174.44 853.54,174.45 853.65,174.48C853.76,174.51 853.92,174.56 854.11,174.61C854.49,174.72 855.01,174.85 855.5,175.03C856.51,175.35 857.49,175.75 857.49,175.75C857.49,175.75 857,175.88 856.29,176.1C855.57,176.34 854.65,176.64 853.76,177.04C852.88,177.4 852.03,177.85 851.42,178.17C851.12,178.33 850.86,178.49 850.69,178.59C850.52,178.7 850.42,178.76 850.42,178.76Z" style="fill:rgb(239,121,24);fill-rule:nonzero;"/>
                <path id="XMLID_841_" d="M853.9,179.62C853.9,179.62 853.69,179.54 853.36,179.45C853.04,179.36 852.61,179.23 852.17,179.12C851.73,179.02 851.3,178.91 850.97,178.85C850.64,178.79 850.42,178.75 850.42,178.75C850.42,178.75 850.52,178.69 850.69,178.59C850.86,178.49 851.11,178.33 851.42,178.17C852.03,177.84 852.87,177.4 853.76,177.04C854.65,176.64 855.57,176.34 856.29,176.1C857,175.88 857.49,175.75 857.49,175.75C857.49,175.75 857.74,175.85 858.1,176C858.46,176.16 858.94,176.38 859.43,176.6C859.9,176.84 860.37,177.08 860.73,177.26C861.08,177.45 861.31,177.58 861.31,177.58C861.31,177.58 861.19,177.6 860.97,177.62C860.76,177.65 860.44,177.7 860.07,177.77C859.7,177.84 859.28,177.92 858.83,178.01C858.38,178.11 857.91,178.24 857.44,178.36C856.98,178.48 856.52,178.63 856.1,178.77C855.68,178.91 855.3,179.04 854.97,179.17C854.31,179.44 853.9,179.62 853.9,179.62Z" style="fill-rule:nonzero;"/>
            </g>
            <g id="XMLID_837_">
                <path id="XMLID_839_" d="M857.23,180.94C857.23,180.94 857.03,180.85 856.72,180.71C856.57,180.64 856.39,180.56 856.2,180.47C856,180.39 855.8,180.31 855.59,180.23C855.38,180.15 855.17,180.07 854.98,179.99C854.78,179.92 854.6,179.86 854.44,179.8C854.12,179.69 853.91,179.62 853.91,179.62C853.91,179.62 854.32,179.44 854.98,179.18C855.31,179.04 855.69,178.92 856.11,178.78C856.53,178.64 856.99,178.49 857.45,178.37C857.91,178.25 858.39,178.12 858.84,178.02C859.28,177.93 859.71,177.85 860.08,177.78C860.45,177.71 860.76,177.66 860.98,177.63C861.2,177.6 861.32,177.59 861.32,177.59C861.32,177.59 862.25,178.1 863.13,178.69C863.58,178.97 864,179.29 864.33,179.51C864.49,179.63 864.63,179.72 864.72,179.79C864.81,179.86 864.86,179.9 864.86,179.9L864.51,179.9C864.29,179.91 863.98,179.92 863.6,179.93C862.86,179.95 861.87,180.05 860.92,180.16C859.96,180.31 859.04,180.47 858.36,180.65C858.03,180.73 857.75,180.8 857.55,180.85C857.34,180.91 857.23,180.94 857.23,180.94Z" style="fill:rgb(239,121,24);fill-rule:nonzero;"/>
                <path id="XMLID_838_" d="M860.36,182.7C860.36,182.7 859.61,182.2 858.83,181.77C858.45,181.54 858.04,181.35 857.74,181.19C857.59,181.11 857.47,181.05 857.38,181C857.29,180.96 857.24,180.94 857.24,180.94C857.24,180.94 857.35,180.9 857.54,180.85C857.74,180.8 858.01,180.73 858.35,180.65C859.03,180.47 859.95,180.31 860.91,180.16C861.85,180.04 862.85,179.94 863.59,179.93C863.97,179.92 864.28,179.91 864.5,179.9C864.72,179.89 864.85,179.9 864.85,179.9C864.85,179.9 865.06,180.06 865.37,180.31C865.68,180.55 866.1,180.88 866.49,181.23C866.69,181.4 866.89,181.58 867.08,181.74C867.26,181.91 867.43,182.07 867.57,182.21C867.86,182.48 868.05,182.67 868.05,182.67C868.05,182.67 867.54,182.6 866.8,182.53C866.44,182.49 865.99,182.47 865.54,182.45C865.08,182.43 864.6,182.41 864.12,182.42C863.64,182.43 863.16,182.44 862.72,182.46C862.27,182.49 861.86,182.53 861.52,182.56C861.18,182.59 860.89,182.63 860.69,182.66C860.47,182.68 860.36,182.7 860.36,182.7Z" style="fill-rule:nonzero;"/>
            </g>
            <g id="XMLID_834_">
                <path id="XMLID_836_" d="M863.23,184.85C863.23,184.85 863.06,184.7 862.8,184.48C862.54,184.27 862.18,183.99 861.83,183.72C861.46,183.46 861.1,183.2 860.82,183C860.54,182.81 860.35,182.69 860.35,182.69C860.35,182.69 860.46,182.67 860.66,182.64C860.86,182.61 861.15,182.57 861.49,182.54C861.84,182.51 862.24,182.47 862.69,182.44C863.13,182.42 863.6,182.41 864.09,182.4C864.58,182.39 865.05,182.41 865.51,182.43C865.97,182.45 866.41,182.47 866.77,182.51C867.51,182.58 868.02,182.65 868.02,182.65C868.02,182.65 868.21,182.83 868.48,183.12C868.75,183.41 869.13,183.78 869.47,184.18C869.81,184.58 870.17,184.97 870.41,185.29C870.66,185.6 870.82,185.81 870.82,185.81C870.82,185.81 870.33,185.67 869.61,185.5C868.87,185.35 867.92,185.15 866.96,185.04C866.02,184.91 865.06,184.87 864.37,184.83C863.68,184.84 863.23,184.85 863.23,184.85Z" style="fill:rgb(239,121,24);fill-rule:nonzero;"/>
                <path id="XMLID_835_" d="M865.8,187.35C865.8,187.35 865.66,187.18 865.42,186.94C865.18,186.7 864.89,186.36 864.56,186.06C863.92,185.43 863.23,184.85 863.23,184.85C863.23,184.85 863.69,184.84 864.39,184.85C865.07,184.88 866.03,184.92 866.98,185.06C867.95,185.17 868.89,185.37 869.63,185.52C870.35,185.69 870.84,185.83 870.84,185.83C870.84,185.83 871,186.04 871.25,186.35C871.48,186.67 871.79,187.1 872.09,187.54C872.38,187.98 872.66,188.43 872.88,188.76C873.09,189.1 873.22,189.33 873.22,189.33C873.22,189.33 873.1,189.28 872.9,189.2C872.7,189.11 872.4,189 872.05,188.87C871.7,188.74 871.29,188.6 870.86,188.45C870.42,188.31 869.95,188.18 869.49,188.05C869.03,187.92 868.56,187.82 868.13,187.73C867.7,187.64 867.3,187.56 866.95,187.51C866.24,187.41 865.8,187.35 865.8,187.35Z" style="fill-rule:nonzero;"/>
            </g>
            <g id="XMLID_831_">
                <path id="XMLID_833_" d="M868.01,190.18C868.01,190.18 867.88,190 867.68,189.72C867.58,189.58 867.47,189.42 867.35,189.25C867.22,189.08 867.08,188.91 866.94,188.73C866.8,188.55 866.66,188.38 866.53,188.21C866.39,188.05 866.26,187.9 866.15,187.78C865.93,187.53 865.78,187.36 865.78,187.36C865.78,187.36 866.23,187.41 866.92,187.52C867.27,187.57 867.66,187.65 868.1,187.74C868.53,187.83 869.01,187.93 869.46,188.06C869.92,188.19 870.39,188.32 870.83,188.46C871.26,188.6 871.67,188.75 872.02,188.88C872.37,189.01 872.67,189.12 872.87,189.21C873.07,189.3 873.19,189.34 873.19,189.34C873.19,189.34 873.73,190.25 874.2,191.2C874.45,191.67 874.65,192.16 874.82,192.52C874.98,192.88 875.09,193.12 875.09,193.12C875.09,193.12 873.33,192.09 871.56,191.37C870.65,191.01 869.78,190.7 869.1,190.5C868.77,190.4 868.49,190.32 868.3,190.27C868.13,190.2 868.01,190.18 868.01,190.18Z" style="fill:rgb(239,121,24);fill-rule:nonzero;"/>
                <path id="XMLID_832_" d="M869.83,193.27C869.83,193.27 869.43,192.46 868.97,191.7C868.76,191.3 868.49,190.94 868.32,190.65C868.23,190.51 868.15,190.39 868.1,190.31C868.04,190.23 868.01,190.18 868.01,190.18C868.01,190.18 868.13,190.2 868.32,190.26C868.51,190.32 868.79,190.4 869.12,190.49C869.8,190.68 870.67,191 871.58,191.36C873.35,192.08 875.11,193.11 875.11,193.11C875.11,193.11 875.21,193.36 875.35,193.73C875.5,194.1 875.69,194.59 875.85,195.1C876.02,195.6 876.19,196.1 876.29,196.49C876.4,196.87 876.47,197.13 876.47,197.13C876.47,197.13 876.07,196.82 875.47,196.38C875.17,196.16 874.8,195.92 874.42,195.67C874.04,195.42 873.63,195.16 873.2,194.93C872.78,194.69 872.37,194.46 871.97,194.26C871.57,194.06 871.2,193.89 870.88,193.74C870.57,193.59 870.3,193.48 870.11,193.41C869.94,193.31 869.83,193.27 869.83,193.27Z" style="fill-rule:nonzero;"/>
            </g>
            <g id="XMLID_827_">
                <path id="XMLID_830_" d="M871.23,196.57C871.23,196.57 871.16,196.36 871.05,196.04C870.93,195.73 870.76,195.31 870.6,194.89C870.42,194.48 870.23,194.07 870.09,193.77C869.94,193.47 869.84,193.27 869.84,193.27C869.84,193.27 869.95,193.31 870.13,193.39C870.32,193.46 870.59,193.58 870.9,193.72C871.22,193.86 871.59,194.04 871.99,194.24C872.38,194.44 872.79,194.67 873.22,194.91C873.65,195.15 874.05,195.4 874.44,195.65C874.82,195.9 875.2,196.14 875.49,196.36C876.09,196.8 876.49,197.11 876.49,197.11C876.49,197.11 876.51,197.17 876.54,197.29C876.57,197.4 876.61,197.56 876.66,197.75C876.75,198.14 876.88,198.65 876.98,199.17C877.07,199.69 877.17,200.21 877.24,200.6C877.29,200.99 877.32,201.26 877.32,201.26C877.32,201.26 875.92,199.8 874.37,198.64C874.18,198.5 873.99,198.35 873.81,198.21C873.62,198.08 873.43,197.94 873.24,197.82C872.87,197.57 872.53,197.35 872.24,197.16C871.62,196.79 871.23,196.57 871.23,196.57Z" style="fill:rgb(239,121,24);fill-rule:nonzero;"/>
                <path id="XMLID_829_" d="M872.52,202.96C872.52,202.96 872.51,202.74 872.48,202.4C872.44,202.07 872.39,201.62 872.34,201.18C872.27,200.74 872.19,200.3 872.14,199.96C872.07,199.63 872.02,199.41 872.02,199.41C872.02,199.41 872.11,199.48 872.27,199.6C872.44,199.72 872.66,199.9 872.93,200.12C873.2,200.34 873.51,200.61 873.85,200.9C874.18,201.2 874.52,201.52 874.86,201.86C875.21,202.2 875.54,202.55 875.84,202.89C876.14,203.23 876.44,203.56 876.67,203.85C877.14,204.43 877.48,204.91 877.48,204.91L877.22,209.17C877.22,209.17 876.19,207.28 875,205.77C874.85,205.58 874.71,205.39 874.57,205.21C874.42,205.03 874.27,204.85 874.12,204.68C873.83,204.34 873.56,204.04 873.33,203.79C872.85,203.27 872.52,202.96 872.52,202.96Z" style="fill:rgb(239,121,24);fill-rule:nonzero;"/>
                <path id="XMLID_828_" d="M872.14,199.99C872.14,199.99 872.1,199.78 872.03,199.45C871.95,199.12 871.89,198.7 871.76,198.28C871.53,197.41 871.23,196.57 871.23,196.57C871.23,196.57 871.62,196.79 872.23,197.15C872.52,197.34 872.86,197.56 873.23,197.81C873.41,197.94 873.6,198.07 873.8,198.2C873.99,198.34 874.18,198.49 874.36,198.63C875.9,199.79 877.31,201.25 877.31,201.25C877.31,201.25 877.46,202.3 877.52,203.35C877.57,203.88 877.49,205.41 877.49,205.41C877.49,205.41 877.28,205.05 876.81,204.47C876.36,203.89 875.67,203.16 875.02,202.47C874.32,201.79 873.65,201.16 873.09,200.72C872.54,200.29 872.14,199.99 872.14,199.99Z" style="fill-rule:nonzero;"/>
            </g>
        </g>
        <g id="XMLID_796_">
            <path id="XMLID_793_" d="M893.97,222.49L797.14,222.49L801.18,210.82L797.14,199.15L893.97,199.15L889.93,210.82L893.97,222.49Z" style="fill:white;fill-rule:nonzero;"/>
        </g>
        <path id="XMLID_1081_" d="M825.18,220.59L865.93,220.59C861.35,226.87 853.93,230.96 845.55,230.96C837.18,230.96 829.76,226.88 825.18,220.59Z" style="fill-rule:nonzero;"/>
        <g>
            <path d="M826.7,222.49L809.66,222.49L809.66,221.22L825.65,221.22L826.7,222.49Z" style="fill:rgb(1,2,2);fill-rule:nonzero;"/>
            <path d="M864.39,222.49L881.43,222.49L881.43,221.22L865.44,221.22L864.39,222.49Z" style="fill:rgb(1,2,2);fill-rule:nonzero;"/>
        </g>
        <g id="XMLID_825_">
            <path id="XMLID_1056_" d="M831.51,186.94L832.11,188.76L834.02,188.76L832.47,189.89L833.06,191.71L831.51,190.58L829.96,191.71L830.55,189.89L829,188.76L830.92,188.76L831.51,186.94Z" style="fill:white;fill-rule:nonzero;"/>
            <path id="XMLID_1052_" d="M860.4,186.94L860.99,188.76L862.91,188.76L861.36,189.89L861.95,191.71L860.4,190.58L858.85,191.71L859.44,189.89L857.89,188.76L859.81,188.76L860.4,186.94Z" style="fill:white;fill-rule:nonzero;"/>
        </g>
        <g id="XMLID_5_">
            <path id="XMLID_8_" d="M846.29,181.46L846.88,183.29L848.8,183.29L847.25,184.42L847.84,186.24L846.29,185.11L844.74,186.24L845.33,184.42L843.78,183.29L845.7,183.29L846.29,181.46Z" style="fill:white;fill-rule:nonzero;"/>
        </g>
        <path d="M419.35,313.49C419.62,333.12 430.5,337.15 456.49,337.15L482.07,337.15C503.97,337.15 513.49,331.73 513.49,313.08C513.49,297.5 505.33,290.67 487.51,290.38L456.77,289.97C448.6,289.84 444.93,289.28 444.93,285.25C444.93,281.63 447.93,280.65 454.05,280.65L471.6,280.65C478.68,280.65 482.89,282.04 484.11,284.82L509.28,284.82C509.15,270.35 500.57,263.67 482.34,263.67L453.76,263.67C430.23,263.67 419.62,269.51 419.62,286.76C419.62,304.03 430.35,308.2 452.94,308.61L477.84,309.03C484.78,309.17 488.19,310.84 488.19,314.6C488.19,318.78 485.19,320.16 478.12,320.16L459.76,320.16C450.5,320.16 446.02,318.37 446.02,313.75L446.02,313.48L419.35,313.48L419.35,313.49Z"/>
        <path d="M529.24,283.31L529.24,312.39C529.24,330.9 538.23,337.16 561.9,337.16C586.79,337.16 597.4,329.37 597.4,309.63C597.4,307.65 597.4,305.57 597.14,303.35L574.82,303.35C574.96,304.87 575.1,306.26 575.1,307.52C575.1,315.17 572.25,317.82 564.21,317.82C556.86,317.82 554.41,314.89 554.41,307.65L554.41,283.31L593.73,283.31L593.73,264.66L554.41,264.66L554.41,247.54L529.24,247.54L529.24,264.66L515.11,264.66L515.11,283.31L529.24,283.31Z"/>
        <path d="M630.6,264.66L605.42,264.66L605.42,336.2L630.6,336.2L630.6,264.66ZM630.6,235.02L605.42,235.02L605.42,256.02L630.6,256.02L630.6,235.02Z"/>
        <path d="M666.52,336.2L666.52,300.99C666.52,289.43 672.64,284.7 686.79,284.7C703.94,284.7 706.92,288.59 706.92,300.15L706.92,336.2L732.09,336.2L732.09,289.98C732.09,272.72 720.8,263.96 697.94,263.96C682.43,263.96 673.05,265.92 666.51,276.08L666.51,235.02L641.33,235.02L641.33,336.2L666.52,336.2Z"/>
        <path d="M776.68,337.16L801.85,337.16C826.22,337.16 836.69,330.49 836.69,310.45L836.69,290.54C836.69,271.47 826.6,263.68 801.85,263.68L776.55,263.68C750.71,263.68 741.73,271.34 741.73,291.37L741.73,310.85C741.73,330.35 752.59,337.16 776.68,337.16M783.35,317.82C771.78,317.82 766.89,314.61 766.89,305.3L766.89,296.11C766.89,286.08 771.12,283.03 783.35,283.03L795.19,283.03C806.74,283.03 811.51,286.36 811.51,295.69L811.51,305.16C811.51,314.76 806.62,317.82 795.19,317.82L783.35,317.82Z"/>
        <path d="M302.64,246.96C327.82,249.73 353.01,253.45 376.23,261.74L389.54,266.37C388.78,287.26 386.44,313.18 377.44,333.45C370.11,334.69 359.59,334.69 351.81,335.39C355.44,326.19 359.29,307.62 361.03,296.01L362.17,283C343.79,277.51 322.22,274.42 302.64,272.71L302.64,335.7C269.21,339.64 235.46,334.84 199.92,327.73C195.98,318.99 194.4,313.18 192.51,303.44C193.72,303.44 207.26,306.45 213.01,307.7C243.04,313.96 272.16,316.51 272.16,315.35L272.16,309.32C272.16,309.32 235.25,308.38 190.78,296.15C190.78,296.15 185.94,275.73 186.61,265.67C193.27,261.74 208.86,256.39 215.21,254.76C234.34,249.96 252.34,248.18 272.62,246.95L272.62,153.45L302.66,153.45L302.66,246.96L302.64,246.96ZM272.61,286.41C254.08,286.17 233.2,285.71 216.71,279.67C216.71,279.67 229.12,276.19 238.5,275.11C253.4,273.32 262.48,273.64 272.61,273.32L272.61,286.41Z" style="fill:rgb(239,121,24);"/>
        <path d="M536.4,385.81C536.4,384.52 537.46,383.45 538.75,383.45L834.69,383.45C835.98,383.45 837.05,384.52 837.05,385.81L837.05,438.4C837.05,439.71 835.99,440.77 834.69,440.77L538.75,440.77C537.45,440.77 536.4,439.72 536.4,438.4L536.4,385.81Z" style="fill:rgb(239,121,24);"/>
        <path d="M332.66,369.6C332.66,368.3 333.71,367.25 335.02,367.25L335.37,367.26L567.38,367.26C568.67,367.26 569.73,368.3 569.73,369.62L569.73,422.09C569.73,423.39 568.67,424.44 567.38,424.44L335.01,424.44C333.7,424.44 332.65,423.4 332.65,422.09L332.65,369.6L332.66,369.6Z"/>
        <path d="M605.02,431.78L605.02,427.48C602.31,430.55 600.61,432.16 595.37,432.24C587.07,432.41 580.14,425.31 580.04,416.93C579.99,408.46 586.91,401.44 595.43,401.33C599.06,401.29 602.34,403.08 605.07,406.25L605.07,398.19L601.28,398.19L601.28,391.69L611.68,391.69L611.68,425.38L615.53,425.38L615.53,431.78L605.02,431.78ZM596.2,407.77C591.27,407.77 587.28,411.88 587.18,416.8C587.12,421.63 590.71,425.73 595.52,426.04C600.65,426.4 605.17,421.99 605.12,416.8C605.07,411.88 601.12,407.85 596.2,407.77" style="fill:white;fill-rule:nonzero;"/>
        <path d="M648,419.58L623.9,419.58C624.82,423.92 629.03,426.71 633.14,426.71C636.62,426.71 638.1,425.56 640.02,423.16L646.97,423.16C644.57,429.21 639.64,432.7 633.14,432.7C623.9,432.7 617.6,425.52 617.6,416.96C617.6,408.36 624.68,401.16 633.24,401.16C642.31,401.16 648.21,409.07 648.27,416.73C648.31,417.63 648.21,418.64 648,419.58M633.24,407.07C628.07,407.07 624.94,410.19 623.95,414.34L641.66,414.34C640.88,410.14 637.85,407.07 633.24,407.07" style="fill:white;fill-rule:nonzero;"/>
        <path d="M689.71,432.36C684.43,432.23 682.54,430.7 679.78,427.48L679.78,431.78L669.06,431.78L669.06,425.38L672.89,425.38L672.89,398.19L669.19,398.19L669.19,391.68L679.87,391.68L679.87,406.19C682.48,403.12 684.28,401.42 689.15,401.42C697.62,401.42 704.37,408.66 704.27,417.07C704.24,425.25 697.97,432.49 689.71,432.36M688.34,407.67C683.42,407.73 679.42,411.78 679.37,416.72C679.27,421.93 683.83,426.4 689,426.04C693.88,425.73 697.57,421.63 697.51,416.81C697.46,411.77 693.36,407.67 688.34,407.67" style="fill:white;fill-rule:nonzero;"/>
        <path d="M723.86,432.44C715.08,432.44 707.8,425.3 707.8,416.54C707.8,407.73 715.35,400.94 724.11,400.94C733.03,400.94 739.85,407.92 739.85,416.5C739.84,425.73 732.62,432.44 723.86,432.44M723.95,407.73C719.03,407.73 714.67,411.46 714.67,416.45C714.67,421.47 718.73,425.73 723.75,425.73C728.77,425.73 733.03,421.73 733.03,416.67C733.03,411.72 728.87,407.73 723.95,407.73" style="fill:white;fill-rule:nonzero;"/>
        <path d="M765.38,431.85L765.38,427.94C763.08,431.21 759.49,432.6 756.1,432.49C749.99,432.36 745.78,427.98 745.78,420.55L745.78,408.14L742.01,408.14L742.01,401.8L752.47,401.8L752.47,420.19C752.47,423.44 754.82,426.25 758.05,426.36C762.77,426.57 764.78,422.04 764.78,419.9L764.78,408.15L761.02,408.15L761.02,401.81L771.49,401.81L771.49,425.39L775.2,425.39L775.2,431.85L765.38,431.85Z" style="fill:white;fill-rule:nonzero;"/>
        <path d="M818.73,408.13L810.46,431.84L803.91,431.84L798.58,414.2L792.12,431.84L785.76,431.84L778.83,408.13L775.04,408.13L775.04,401.79L788.73,401.79L788.73,408.13L785.49,408.13L789.71,422.44L796.05,402.85L801.7,402.8L807.4,422.49L812.06,408.13L808.68,408.13L808.68,401.79L822.57,401.79L822.57,408.13L818.73,408.13Z" style="fill:white;fill-rule:nonzero;"/>
        <path d="M473.05,416.4C469.92,416.36 467.82,415.43 465.62,413.17L465.62,415.47L460.49,415.47L460.49,406.75L467.35,406.75C467.3,409.33 469.92,411.52 472.23,411.32C474.34,411.16 476.28,410.05 476.18,407.54C476.07,403.89 471.72,403.79 468.08,402.61C463.3,401.02 460.38,398.71 460.34,393.84C460.34,388 465.26,384.61 470.59,384.71C473.35,384.76 475.15,385.48 477.2,387.33L477.2,385.48L482.23,385.48L482.23,393.52L475.56,393.52C475.41,391.48 474.02,389.89 471.61,390C469.77,390.04 468.13,390.82 467.97,393.18C467.82,395.84 471.21,396.76 473.56,397.29C475.76,397.68 483.86,399.95 483.91,406.87C484.02,412.97 478.69,416.5 473.05,416.4" style="fill:white;fill-rule:nonzero;"/>
        <path d="M541.91,415.47L541.91,409.07L545.4,409.07L545.4,397.07C545.4,393.99 542.78,391.59 539.7,391.49C534.98,391.22 533.5,396.05 533.5,397.39L533.5,409.08L536.94,409.08L536.94,415.48L523.8,415.48L523.8,409.03L527.29,409.03L527.29,391.85L523.65,391.85L523.65,385.49L533.45,385.49L533.45,389.43C535.4,386.27 538.31,384.46 541.7,384.56C548.27,384.77 551.75,389.48 551.75,396.96L551.75,409.07L555.24,409.07L555.24,415.47L541.91,415.47Z" style="fill:white;fill-rule:nonzero;"/>
        <path d="M351.53,415.47L351.53,391.84L347.12,391.84L347.12,385.48L351.48,385.48L351.48,375.27L358.04,375.27L358.04,385.48L362.7,385.48L362.7,391.84L357.89,391.84L357.89,409.07L362.96,409.07L362.96,415.47L351.53,415.47Z" style="fill:white;fill-rule:nonzero;"/>
        <path d="M387.58,415.47L387.58,409.07L391.37,409.07L391.37,397.49C391.37,394.14 388.39,391.64 385.06,391.59C381.63,391.49 378.49,394.44 378.49,397.41L378.49,409.07L382.23,409.07L382.23,415.47L367.88,415.47L367.88,409.07L371.57,409.07L371.57,381.9L367.88,381.9L367.88,375.38L378.49,375.38L378.49,389.94C380.54,386.51 383.52,384.86 387.52,384.86C393.16,384.86 398.03,390.14 398.03,394.92L398.03,409.07L402.03,409.07L402.03,415.47L387.58,415.47Z" style="fill:white;fill-rule:nonzero;"/>
        <path d="M426.69,415.52L426.69,411.63C424.38,414.92 420.79,416.29 417.41,416.2C411.31,416.03 407.1,411.67 407.1,404.24L407.1,391.83L403.3,391.83L403.3,385.47L413.76,385.47L413.76,403.88C413.76,407.12 416.12,409.93 419.36,410.04C424.08,410.23 426.08,405.73 426.08,403.58L426.08,391.83L422.33,391.83L422.33,385.47L432.79,385.47L432.79,409.06L436.48,409.06L436.48,415.51L426.69,415.51L426.69,415.52Z" style="fill:white;fill-rule:nonzero;"/>
        <path d="M441.31,415.47L441.31,409.07L445.15,409.07L445.15,391.84L441.35,391.84L441.35,385.48L452.22,385.48L452.22,409.07L455.71,409.07L455.71,415.47L441.31,415.47ZM445.35,375.37L452.07,375.37L452.07,381.89L445.35,381.89L445.35,375.37Z" style="fill:white;fill-rule:nonzero;"/>
        <path d="M504.47,415.47L504.47,409.07L508.32,409.07L508.32,391.84L504.52,391.84L504.52,385.48L515.39,385.48L515.39,409.07L518.88,409.07L518.88,415.47L504.47,415.47ZM508.52,375.37L515.24,375.37L515.24,381.89L508.52,381.89L508.52,375.37Z" style="fill:white;fill-rule:nonzero;"/>
        <path id="XMLID_779_" d="M893.97,221.22L797.14,221.22L801.18,208.93L797.14,196.63L893.97,196.63L889.93,208.93L893.97,221.22Z" style="fill:rgb(239,121,24);fill-rule:nonzero;stroke:black;stroke-width:3.09px;"/>
        <path d="M812.77,215.18C812.06,215 811.45,214.75 810.96,214.45L812.39,211.82C813,212.32 813.76,212.57 814.67,212.57C816.14,212.57 816.88,211.94 816.88,210.67C816.29,211.23 815.51,211.51 814.53,211.51C813.8,211.51 813.15,211.35 812.59,211.04C812.03,210.73 811.6,210.29 811.3,209.72C811,209.15 810.84,208.5 810.84,207.76C810.84,206.95 811.02,206.24 811.39,205.64C811.76,205.04 812.28,204.58 812.96,204.25C813.64,203.92 814.42,203.76 815.31,203.76C816.37,203.76 817.29,204 818.06,204.47C818.83,204.94 819.43,205.61 819.84,206.46C820.25,207.31 820.46,208.33 820.46,209.48C820.46,210.67 820.23,211.72 819.77,212.62C819.31,213.53 818.66,214.23 817.82,214.72C816.98,215.21 816.01,215.46 814.89,215.46C814.18,215.46 813.48,215.36 812.77,215.18ZM816.54,207.76C816.54,207.08 816.16,206.74 815.41,206.74C814.68,206.74 814.31,207.09 814.31,207.78C814.31,208.45 814.67,208.79 815.4,208.79C816.16,208.78 816.54,208.44 816.54,207.76Z" style="fill:white;fill-rule:nonzero;"/>
        <path d="M825.55,206.81L825.55,208.01L826.06,208.01C826.97,208.01 827.77,208.15 828.45,208.43C829.13,208.71 829.66,209.11 830.03,209.63C830.4,210.15 830.59,210.74 830.59,211.43C830.59,212.24 830.39,212.96 830,213.57C829.61,214.18 829.04,214.65 828.31,214.98C827.58,215.31 826.73,215.47 825.77,215.47C824.97,215.47 824.14,215.33 823.29,215.06C822.44,214.79 821.7,214.42 821.07,213.97L822.57,211.12C823.38,212.18 824.3,212.71 825.31,212.71C826.12,212.71 826.53,212.37 826.52,211.7C826.52,211.08 826.12,210.78 825.31,210.78L822.11,210.78L822.11,203.94L830.05,203.94L830.05,206.83L825.55,206.83L825.55,206.81Z" style="fill:white;fill-rule:nonzero;"/>
        <path d="M841.77,214.4C841,215.1 839.96,215.45 838.64,215.45C836.89,215.45 835.41,214.79 834.21,213.48L835.92,211.04C836.34,211.46 836.77,211.78 837.19,212C837.61,212.22 837.98,212.33 838.29,212.33C838.56,212.33 838.77,212.25 838.92,212.09C839.07,211.93 839.15,211.69 839.15,211.37L839.15,206.89L835.29,206.89L835.29,203.92L842.93,203.92L842.93,211.46C842.92,212.71 842.54,213.7 841.77,214.4Z" style="fill:white;fill-rule:nonzero;"/>
        <path d="M847.53,213.69L846.94,215.3L843.08,215.3L847.88,203.92L851.74,203.92L856.37,215.3L852.36,215.3L851.79,213.69L847.53,213.69ZM849.71,207.66L848.51,210.99L850.88,210.99L849.71,207.66Z" style="fill:white;fill-rule:nonzero;"/>
        <path d="M860.51,213.69L859.92,215.3L856.06,215.3L860.86,203.92L864.72,203.92L869.35,215.3L865.34,215.3L864.77,213.69L860.51,213.69ZM862.68,207.66L861.48,210.99L863.85,210.99L862.68,207.66Z" style="fill:white;fill-rule:nonzero;"/>
        <path d="M875.18,212.34L873.77,212.34L873.77,215.3L870,215.3L870,203.92L875.51,203.92C877.06,203.92 878.26,204.28 879.1,204.99C879.94,205.7 880.36,206.7 880.36,208C880.36,208.82 880.21,209.54 879.9,210.15C879.59,210.76 879.15,211.25 878.56,211.6L880.8,215.3L876.55,215.3L875.18,212.34ZM875.51,209.48C875.92,209.48 876.24,209.36 876.46,209.12C876.68,208.88 876.79,208.54 876.79,208.11C876.79,207.69 876.68,207.36 876.46,207.13C876.24,206.9 875.92,206.78 875.52,206.78L873.78,206.78L873.78,209.49L875.51,209.49L875.51,209.48Z" style="fill:white;fill-rule:nonzero;"/>
    </g>
</svg>
